<svg xmlns="http://www.w3.org/2000/svg" width="235.31" height="208.048" viewBox="0 0 235.31 208.048"><g ><g transform="translate(0 0)"><path d="M93.56,15.211c49.88,0,90.6,30,93.232,67.68,29.12,9.024,48.518,30.772,48.518,54.956a54.23,54.23,0,0,1-25.6,44.037v37.991a3.456,3.456,0,0,1-3.522,3.385,3.605,3.605,0,0,1-2.4-.9l-30.153-26.53a100.228,100.228,0,0,1-15.687,1.218c-32.878,0-61.81-15.7-72.8-39.254-3.664-.271-7.327-.632-10.991-1.218L37.152,189.1a3.625,3.625,0,0,1-4.978-.18,3.313,3.313,0,0,1-.94-2.3V139.968C11.366,126.432,0,107.075,0,86.681.047,47.292,41.989,15.211,93.56,15.211Zm64.393,175.065a92.8,92.8,0,0,0,16.157-1.4,3.622,3.622,0,0,1,3.006.812l25.5,22.56v-32.17a3.35,3.35,0,0,1,1.55-2.8c15.406-9.971,24.095-24.5,24.095-39.48,0-20.575-16.392-39.3-41.238-47.782a50.388,50.388,0,0,1-1.55,9.024,66.435,66.435,0,0,1-22.592,35.193c-.658.587-24.517,23.146-69.841,23.688C103.987,177.552,129.256,190.276,157.954,190.276ZM36.776,135.411a3.35,3.35,0,0,1,1.55,2.8v40.608l32.408-28.471a3.6,3.6,0,0,1,2.4-.9h.658a107.424,107.424,0,0,0,18.787,1.669c34.1,0,54.718-12.724,64.816-20.89a67.118,67.118,0,0,0,21.511-32.4A48.918,48.918,0,0,0,180.31,86.5c-.282-35.464-39.077-64.566-86.75-64.566S7.092,50.946,7.092,86.636C7.092,105.316,17.895,123.093,36.776,135.411Z" transform="translate(0 -15.211)" fill="#f60"/></g></g></svg>
