<svg xmlns="http://www.w3.org/2000/svg" width="177.422" height="177.425" viewBox="0 0 177.422 177.425"><g transform="translate(0)"><path d="M199.384,58.6l.172,1.317-1.974.409-.263,2.806h2.364l3.145-.3,1.624-1.93-1.726-.671-.945-1.087-1.419-2.3-.679-3.251-2.667.544-.748,1.146v1.292l1.284.879Z" transform="translate(-70.098 -19.141)" fill="#f60"/><path d="M194.67,61.715l.142-1.759-1.565-.675-2.189.507-1.624,2.605v1.689h1.894Z" transform="translate(-67.657 -21.173)" fill="#f60"/><path d="M125.916,74.676l-.482,1.241H123.1v1.2h.555s.033.255.08.591l1.43-.12.894-.555.234-1.12,1.157-.1.456-.941-1.062-.219Z" transform="translate(-43.967 -26.664)" fill="#f60"/><path d="M118.08,77.561l-.091,1.179,1.689-.142.175-1.182-1.014-.8Z" transform="translate(-42.14 -27.364)" fill="#f60"/><path d="M177.4,87.8c-.026-2.594-.157-5.17-.4-7.706a88.175,88.175,0,0,0-5.871-24.155c-.226-.566-.434-1.138-.675-1.7A88.817,88.817,0,0,0,153.817,28.53c-.456-.489-.919-.971-1.383-1.445-1.31-1.361-2.656-2.689-4.05-3.963A88.532,88.532,0,0,0,28.651,23.5,89.764,89.764,0,0,0,18.507,34.573,88.67,88.67,0,1,0,167.7,129.012a87.868,87.868,0,0,0,7.243-19.536c.42-1.74.781-3.488,1.095-5.258a88.714,88.714,0,0,0,1.383-15.508C177.425,88.4,177.407,88.1,177.4,87.8Zm-16.7-35.456.514-.577c.675,1.31,1.306,2.642,1.908,3.992l-.839-.033-1.584.219ZM147.888,36.861,147.9,32.9q2.091,2.217,4.021,4.576l-1.6,2.379-5.586-.051-.35-1.164ZM40.874,27.012v-.15h1.777l.153-.609h2.908v1.27l-.836,1.117H40.871l0-1.627Zm2.839,3.959s1.777-.3,1.93-.3,0,1.773,0,1.773l-4.006.252-.763-.912ZM166.358,66.187h-6.491l-3.955-2.945-4.163.405v2.54h-1.317l-1.423-1.014-7.21-1.828V58.674l-9.137.712-2.831,1.522H126.2l-1.777-.179-4.4,2.445v4.6l-9,6.495.748,2.773h1.824l-.478,2.642-1.284.471-.069,6.9,7.779,8.859h3.386l.2-.54h6.086l1.755-1.624h3.452l1.894,1.9,5.145.533-.682,6.842,5.71,10.082-3.007,5.747.2,2.707,2.368,2.361v6.51l3.109,4.182v5.408h2.686A81.381,81.381,0,0,1,13.8,56.849V54.31l2.912-3.536q1.516-2.863,3.251-5.583l.131,1.478-3.379,4.1c-1.047,1.978-2.025,4-2.912,6.075v4.634l3.382,1.627v6.44l3.244,5.535,2.638.405.339-1.9-3.112-4.8-.609-4.667h1.824l.77,4.8,4.5,6.564-1.16,2.12,2.861,4.375,7.1,1.759V82.6L38.422,83l-.27,2.029,2.233.409,3.448.941,4.871,5.55,6.221.471.609,5.076-4.258,2.977-.2,4.532-.609,2.773,6.159,7.71.471,2.642s2.233.606,2.507.606S64.61,122.3,64.61,122.3v13.935l1.689.474-1.149,6.429,2.842,3.791-.525,6.371,3.755,6.6,4.82,4.211,4.846.088.474-1.558-3.561-3,.2-1.489.639-1.824.135-1.861L76.37,154.4l-1.215-1.525,2-1.923.27-1.452-2.233-.639.131-1.35,3.182-.482,4.838-2.324,1.624-2.977,5.076-6.495-1.153-5.079,1.558-2.7,4.667.142,3.142-2.489,1.014-9.8,3.485-4.426.609-2.842-3.178-1.018-2.1-3.441-7.17-.073-5.685-2.167-.27-4.054-1.9-3.317-5.141-.077-2.97-4.663-2.638-1.288-.135,1.423-4.8.285-1.759-2.448-5.01-1.018-4.127,4.769-6.495-1.1-.471-7.32-4.74-.81,1.9-3.59-.544-2.062-6.229,4.163-3.919-.478-1.4-3.061.854-3.156,2.16-3.981,4.973-2.518,9.6,0-.026,2.93,3.452,1.605-.274-5.006,2.489-2.5,5.021-3.3.343-2.321,5.006-5.211,5.324-2.948-.471-.387,3.605-3.393,1.321.35.606.759,1.368-1.518.336-.15-1.5-.212-1.522-.507v-1.46l.806-.66h1.777l.814.358.7,1.423.861-.131v-.124l.248.084,2.5-.383.354-1.219,1.423.358v1.321l-1.321.909h0l.193,1.449,4.521,1.394.011.055,1.04-.088.069-1.959L87.678,44.91l-.2-.941,2.974-1.014.131-2.846L87.47,38.214l-.2-4.8L83,35.511H81.45l.409-3.652-5.8-1.368-2.4,1.813v5.532L69.339,39.2l-1.73,3.605-1.876.3V38.5l-4.058-.562-2.029-1.321-.817-2.988,7.258-4.247,3.55-1.08L70,30.687l1.978-.1.153-1.2,2.069-.3.036-.42-.89-.369-.2-1.27,2.543-.215,1.536-1.6L77.3,25.1l.018.007.467-.482,5.346-.675L85.5,25.958l-6.2,3.3,7.889,1.861,1.022-2.638h3.448l1.219-2.3-2.437-.609V22.667l-7.644-3.386-5.276.609-2.977,1.558.2,3.788-3.112-.474-.478-2.094,2.981-2.707-5.411-.27-1.554.471-.675,1.824,2.029.343-.405,2.029-3.448.2-.54,1.35-5,.139a13.71,13.71,0,0,0-.339-2.839c-.2,0,3.923-.069,3.923-.069l2.981-2.912-1.627-.814-2.164,2.1-3.59-.2-2.164-2.977h-4.6l-4.8,3.587h4.4l.4,1.288L50.4,24.272l4.871.135.744,1.759-5.484-.2-.266-1.354-3.448-.744L44.99,22.849l-4.1.033a81.182,81.182,0,0,1,101.573,4.754l-.967,1.73-3.755,1.47-1.584,1.719.365,2,1.938.27,1.168,2.919,3.342-1.346.551,3.9H142.51l-2.744-.405-3.043.511-2.945,4.16-4.211.66-.609,3.605,1.777.42-.514,2.317-4.182-.839-3.835.839-.814,2.135.664,4.481,2.251,1.055,3.777-.022,2.551-.23.777-2.029,3.985-5.178,2.624.536,2.583-2.335.482,1.824,6.356,4.287-.777,1.044-2.864-.153,1.1,1.562,1.762.387,2.065-.861-.044-2.489.916-.46-.737-.781-4.24-2.364-1.117-3.142h3.525l1.128,1.117,3.036,2.616.128,3.164,3.145,3.35,1.171-4.59,2.178-1.19.409,3.755,2.127,2.335,4.244-.073q1.231,3.169,2.2,6.455ZM48.387,40.305l2.131-1.014,1.927.46-.664,2.587L49.7,43ZM59.7,46.4V48.07H54.828L53,47.563l.456-1.168,2.339-.967h3.2V46.4Zm2.24,2.335v1.624l-1.219.785L59.2,51.42V48.73Zm-1.372-.66V46.14l1.675,1.525Zm.763,3.9v1.58l-1.164,1.168H57.575l.405-1.773,1.222-.106.252-.609ZM54.882,48.73h2.689l-3.448,4.82L52.7,52.788l.306-2.029ZM65.895,51.42V53H63.308L62.6,51.974V50.507h.2ZM63.5,49.252l.737-.774,1.244.774-1,.821ZM167.679,70.3l.255-.3c.106.46.219.92.321,1.387Z" transform="translate(0)" fill="#f60"/><path d="M21.467,82.519v2.54c.887-2.073,1.865-4.094,2.912-6.075Z" transform="translate(-7.667 -28.209)" fill="#f60"/></g></svg>