<svg xmlns="http://www.w3.org/2000/svg" width="151.94" height="188.512" viewBox="0 0 151.94 188.512"><path d="M130.3,122.391a17.372,17.372,0,0,1,15.608-9.005c6.885-.081,10.36-3.588,10.473-10.489a17.338,17.338,0,0,1,8.989-15.576c5.918-3.531,7.2-8.28,3.83-14.294a17.378,17.378,0,0,1,0-18.011c3.37-6,2.1-10.739-3.83-14.27a17.389,17.389,0,0,1-8.989-15.625c-.113-6.869-3.588-10.376-10.473-10.457A17.4,17.4,0,0,1,130.3,5.659q-5.3-8.876-14.278-3.83a17.378,17.378,0,0,1-18.011,0Q89-3.213,83.722,5.659a17.359,17.359,0,0,1-15.6,9.005c-6.869.081-10.36,3.588-10.457,10.457a17.459,17.459,0,0,1-9.005,15.625c-5.918,3.531-7.216,8.264-3.83,14.27a17.307,17.307,0,0,1,0,18.011q-5.079,9.022,3.83,14.294A17.368,17.368,0,0,1,57.665,102.9c.1,6.893,3.588,10.408,10.457,10.489a17.372,17.372,0,0,1,15.608,9.005q5.3,8.876,14.278,3.813a17.523,17.523,0,0,1,18.011,0Q125.016,131.272,130.3,122.391ZM107.03,101.7A37.675,37.675,0,1,1,144.7,64.013,37.676,37.676,0,0,1,107.03,101.7Z" transform="translate(-31.035 0.002)" fill="#f60"/><path d="M62.477,167.628c-7.24,0-8.207-3.37-8.207-3.37L26,219.83l22.671-2.548L61.2,236.148s26.122-54.5,26.122-54.138C73.788,181.672,79.173,167.991,62.477,167.628Z" transform="translate(-25.995 -48.717)" fill="#f60"/><path d="M187.218,167.352c-20.655,2.161-16.455,7.288-21.179,11.271a14.539,14.539,0,0,1-12.222,4.66L185.7,238.147l7.845-20.317,22.3,2.91Z" transform="translate(-63.907 -49.635)" fill="#f60"/><path d="M131.125,72.458l-7.885-15.963-7.893,15.963L97.7,75.038l12.754,12.44-3.007,17.592,15.794-8.3,15.794,8.3-3.007-17.592,12.754-12.44Z" transform="translate(-47.263 -16.755)" fill="#f60"/></svg>