<svg xmlns="http://www.w3.org/2000/svg" width="191.019" height="158.728" viewBox="0 0 191.019 158.728"><g transform="translate(0.065 0.065)"><g transform="translate(82.393 103.439)"><g transform="translate(0 0)"><path d="M6.365,1.089a3.732,3.732,0,0,0-5.28,5.275,3.734,3.734,0,0,0,5.28,0,3.738,3.738,0,0,0,0-5.275Z" fill="#f60"/></g></g><g transform="translate(0 0)"><path d="M183.484,29.059A3.731,3.731,0,1,0,177,32.747,50.113,50.113,0,0,1,168.864,92.8l-2.829,2.829a13.972,13.972,0,0,0-3.185-4.918L124.511,52.379a25.776,25.776,0,0,0,6.857-4.912l7.352-7.352a3.731,3.731,0,0,0-5.277-5.276l-7.352,7.352a18.168,18.168,0,0,1-12.931,5.355h-14.7a3.733,3.733,0,0,0-2.638,1.093L84.572,59.888a8.57,8.57,0,0,1-12.12-12.119L98.139,22.083a50.215,50.215,0,0,1,59.6-8.392,3.731,3.731,0,1,0,3.619-6.525A57.889,57.889,0,0,0,125.872.482a56.857,56.857,0,0,0-30.4,13.87,57.464,57.464,0,0,0-78.7,83.68l1.406,1.406a3.732,3.732,0,0,0,.8.607,14.03,14.03,0,0,0,14.008,12.96c.187,0,.374-.006.561-.013-.007.189-.014.378-.014.567A14.05,14.05,0,0,0,47.6,127.612c.187,0,.374-.006.561-.013-.007.189-.014.378-.014.567A14.051,14.051,0,0,0,62.2,142.219c.189,0,.378-.006.567-.013a14.055,14.055,0,0,0,23.982,10.511l5.214-5.214,7.044,7.043A14.052,14.052,0,0,0,122.989,143.9c.234.012.469.018.7.018a14.033,14.033,0,0,0,14.04-14.613c.189.007.378.014.567.014a14.043,14.043,0,0,0,14.039-14.62c.189.007.378.014.567.014a14.05,14.05,0,0,0,12.991-8.686,3.727,3.727,0,0,0,1.006-.714l7.235-7.235A57.588,57.588,0,0,0,183.484,29.059ZM32.987,105.55a6.6,6.6,0,0,1-4.666-11.263l6.429-6.429a6.6,6.6,0,0,1,9.332,9.331l-6.429,6.429A6.555,6.555,0,0,1,32.987,105.55Zm9.943,12.675a6.6,6.6,0,0,1,0-9.33l6.43-6.429h0a6.6,6.6,0,0,1,9.331,9.331l-6.429,6.429A6.607,6.607,0,0,1,42.931,118.225Zm14.608,14.607a6.6,6.6,0,0,1,0-9.33l6.43-6.429h0A6.6,6.6,0,0,1,73.3,126.4l-6.43,6.429A6.605,6.605,0,0,1,57.539,132.832Zm30.369,8.179-6.43,6.43a6.6,6.6,0,0,1-9.331-9.331l6.43-6.429h0a6.6,6.6,0,0,1,9.331,9.331Zm69.666-35.691a6.6,6.6,0,0,1-9.331,0l-15.531-15.53,0,0L118.1,75.182a3.731,3.731,0,1,0-5.277,5.276l30.14,30.137a6.6,6.6,0,1,1-9.33,9.33L103.5,89.787a3.731,3.731,0,1,0-5.277,5.276l14.606,14.6,0,0L128.36,125.2a6.6,6.6,0,1,1-9.33,9.33L103.5,119a3.725,3.725,0,0,0-.954-.689l-4.43-4.43a3.731,3.731,0,1,0-5.277,5.276l20.783,20.78a6.6,6.6,0,1,1-9.33,9.33l-7.908-7.907a14.065,14.065,0,0,0-13.14-19.075c-.19,0-.379.006-.567.014a14.047,14.047,0,0,0-14.041-14.621c-.19,0-.379.006-.567.014A14.047,14.047,0,0,0,54.026,93.071c-.19,0-.379.006-.567.014a14.053,14.053,0,0,0-23.984-10.5L23.045,89.01a14.05,14.05,0,0,0-2.07,2.638A50,50,0,0,1,90.1,19.566L67.176,42.491A16.033,16.033,0,0,0,89.851,65.164L100.01,55.006h13.152a26.136,26.136,0,0,0,3.221-.206l41.192,41.188A6.608,6.608,0,0,1,157.574,105.32Z" fill="#f60"/></g></g></svg>