<?xml version="1.0" standalone="no"?>
<!DOCTYPE svg PUBLIC "-//W3C//DTD SVG 20010904//EN"
 "http://www.w3.org/TR/2001/REC-SVG-20010904/DTD/svg10.dtd">
<svg version="1.0" xmlns="http://www.w3.org/2000/svg"
 width="700.000000pt" height="700.000000pt" viewBox="0 0 700.000000 700.000000"
 preserveAspectRatio="xMidYMid meet">
<metadata>
Created by potrace 1.11, written by Peter Selinger 2001-2013
</metadata>
<g transform="translate(0.000000,700.000000) scale(0.100000,-0.100000)"
fill="#000000" stroke="none">
<path d="M0 3500 l0 -3500 3500 0 3500 0 0 3500 0 3500 -3500 0 -3500 0 0
-3500z m6310 -1585 c0 -23 -3 -25 -50 -25 l-50 0 0 -140 0 -140 -25 0 -25 0 0
140 0 140 -50 0 c-47 0 -50 2 -50 25 l0 25 125 0 125 0 0 -25z m182 -75 c65
-164 55 -158 94 -55 59 157 59 157 102 153 l37 -3 0 -160 c0 -158 0 -160 -22
-163 -23 -3 -23 -3 -23 135 l-1 138 -56 -138 c-42 -105 -59 -137 -72 -135 -10
2 -33 49 -66 132 l-50 128 -5 -128 -5 -129 -25 0 -25 0 -3 150 c-1 82 0 155 3
163 3 9 18 12 42 10 36 -3 37 -4 75 -98z m-5499 -266 c224 -58 347 -233 347
-494 -1 -265 -118 -434 -345 -496 -64 -18 -205 -18 -270 0 -175 46 -295 179
-331 363 -58 306 75 557 333 628 67 18 193 18 266 -1z m1067 -103 l0 -118 -62
-7 c-102 -12 -147 -27 -184 -61 l-34 -32 0 -327 0 -326 -130 0 -130 0 0 485 0
485 120 0 120 0 0 -56 0 -56 41 36 c65 55 154 94 222 95 l37 1 0 -119z m732
90 c84 -27 159 -91 185 -159 16 -42 18 -83 18 -427 l0 -380 -112 -3 -113 -3
-11 45 -11 45 -57 -29 c-89 -44 -166 -63 -263 -63 -77 0 -94 3 -145 29 -64 33
-116 93 -133 152 -18 66 -12 162 14 217 55 119 229 209 471 245 115 16 115 16
115 56 0 88 -59 129 -175 122 -78 -5 -124 -23 -181 -72 l-39 -33 -82 46 c-45
25 -83 50 -83 54 0 18 100 104 151 130 31 15 84 34 120 42 89 20 244 14 331
-14z m1055 18 c110 -19 190 -94 212 -200 7 -30 11 -194 11 -420 l0 -370 -127
3 -128 3 -5 365 c-5 331 -7 369 -23 393 -10 16 -30 33 -45 38 -59 23 -175 -10
-253 -72 l-39 -31 0 -349 0 -349 -125 0 -125 0 0 475 0 474 33 6 c54 9 162 25
169 25 4 0 12 -25 18 -55 6 -30 13 -55 15 -55 2 0 36 20 76 45 83 51 158 76
253 84 11 0 48 -4 83 -10z m2036 -4 c204 -43 327 -213 327 -454 l0 -81 -325 0
-325 0 6 -42 c21 -154 81 -218 208 -225 87 -6 129 10 196 73 l48 45 91 -51 91
-51 -19 -28 c-59 -83 -160 -146 -269 -170 -73 -15 -227 -14 -283 3 -158 48
-261 159 -297 321 -30 132 -22 290 19 400 78 209 288 312 532 260z m-1073 -22
c25 -11 61 -37 81 -58 l37 -37 7 51 7 51 109 0 109 0 0 -482 c0 -290 -4 -509
-11 -548 -35 -215 -180 -313 -464 -313 -104 0 -130 3 -193 25 -107 38 -188
112 -207 189 l-6 25 113 17 c143 21 137 22 148 -8 23 -61 187 -87 275 -45 65
31 87 81 92 204 l4 101 -36 -43 c-54 -62 -104 -85 -200 -90 -271 -15 -443 199
-421 523 15 231 100 372 263 441 51 22 69 24 153 21 65 -3 109 -11 140 -24z"/>
<path d="M797 1366 c-105 -29 -158 -124 -158 -286 0 -195 73 -290 223 -290 71
0 112 16 155 60 80 82 95 292 30 420 -42 82 -149 123 -250 96z"/>
<path d="M2640 1074 c-101 -22 -160 -46 -203 -85 -37 -32 -41 -40 -45 -95 -4
-58 -3 -62 31 -97 31 -33 40 -37 83 -37 56 1 143 33 197 74 l37 28 0 114 c0
130 8 122 -100 98z"/>
<path d="M5711 1410 c-18 -4 -45 -17 -60 -28 -29 -21 -66 -90 -76 -139 l-7
-33 198 0 197 0 -7 47 c-8 59 -44 115 -88 136 -43 20 -114 28 -157 17z"/>
<path d="M4643 1399 c-47 -14 -98 -69 -119 -131 -14 -40 -19 -80 -18 -163 1
-209 59 -298 194 -298 117 0 180 69 201 220 28 199 -30 338 -156 372 -46 13
-58 13 -102 0z"/>
</g>
</svg>
