<?xml version="1.0" encoding="utf-8"?>
<!-- Generator: Adobe Illustrator 21.0.0, SVG Export Plug-In . SVG Version: 6.00 Build 0)  -->
<svg version="1.1" id="Calque_1" xmlns="http://www.w3.org/2000/svg" xmlns:xlink="http://www.w3.org/1999/xlink" x="0px" y="0px"
	 width="140px" height="140px" viewBox="0 0 140 140" style="enable-background:new 0 0 140 140;" xml:space="preserve">
<style type="text/css">
	.st0{fill:#FF6600;}
	.st1{fill:none;stroke:#FFFFFF;stroke-width:0.9736;stroke-miterlimit:10;}
	.st2{fill:#FFFFFF;}
</style>
<g>
	<g>
		<path class="st0" d="M70,0C31.3,0,0,31.3,0,70c0,38.7,31.3,70,70,70c38.7,0,70-31.3,70-70C140,31.3,108.7,0,70,0z"/>
		<g>
			<path class="st1" d="M50,104L50,104L50,104L50,104z M90,33L90,33L90,33L90,33z"/>
			<g>
				<path class="st2" d="M70,95c13.8,0,25-11.2,25-25c0-13.8-11.2-25-25-25c-13.8,0-25,11.2-25,25C45,83.8,56.2,95,70,95z M51.1,70
					c0-10.4,8.5-18.9,18.9-18.9S88.9,59.6,88.9,70C88.9,80.5,80.4,89,70,89S51.1,80.5,51.1,70z"/>
			</g>
			<path class="st2" d="M94.9,111.5H45.1c-9.4,0-17-7.6-17-17V45.5c0-9.4,7.6-17,17-17h49.9c9.4,0,17,7.6,17,17v49.1
				C111.9,103.9,104.3,111.5,94.9,111.5z M45.1,34.7c-5.9,0-10.8,4.8-10.8,10.8v49.1c0,5.9,4.8,10.8,10.8,10.8h49.9
				c5.9,0,10.8-4.8,10.8-10.8V45.5c0-5.9-4.8-10.8-10.8-10.8H45.1z"/>
		</g>
		<path class="st2" d="M95.3,42.2c-2.2,0-3.9,1.8-3.9,4c0,2.2,1.8,3.9,3.9,3.9c2.2,0,4-1.8,4-3.9C99.3,43.9,97.5,42.2,95.3,42.2z"/>
	</g>
</g>
</svg>
