<?xml version="1.0" encoding="utf-8"?>
<!-- Generator: Adobe Illustrator 21.0.0, SVG Export Plug-In . SVG Version: 6.00 Build 0)  -->
<svg version="1.1" id="Calque_1" xmlns="http://www.w3.org/2000/svg" xmlns:xlink="http://www.w3.org/1999/xlink" x="0px" y="0px"
	 width="140px" height="140px" viewBox="0 0 140 140" style="enable-background:new 0 0 140 140;" xml:space="preserve">
<style type="text/css">
	.st0{fill:#AFAFAF;}
	.st1{fill:#FF6600;}
	.st2{fill:#FFFFFF;}
</style>
<g>
	<g>
		<path id="XMLID_1_" class="st0" d="M139.9,70c0-38.6-31.3-69.9-69.9-69.9C31.4,0.1,0.1,31.4,0.1,70c0,38.6,31.3,69.9,69.9,69.9
			C108.6,139.9,139.9,108.6,139.9,70z"/>
	</g>
	<g>
		<path id="XMLID_108_" class="st1" d="M139.9,70c0-38.6-31.3-69.9-69.9-69.9C31.4,0.1,0.1,31.4,0.1,70c0,38.6,31.3,69.9,69.9,69.9
			C108.6,139.9,139.9,108.6,139.9,70z"/>
		<g>
			<rect x="36.7" y="52.9" class="st2" width="16.2" height="46.3"/>
			<path class="st2" d="M44.8,29.8c-5.1,0-9,4.7-7.9,9.9c0.7,3,3.2,5.5,6.2,6.1c5.2,1,9.8-2.9,9.8-7.9
				C52.9,33.4,49.3,29.8,44.8,29.8z"/>
			<path class="st2" d="M106.1,67.2c-1.1-8.7-5.4-14.2-17.2-14.2c-8.4,0-11.7,1.3-13.6,5l0,0v-5H62.1v46.3h13.5V75
				c0-6,1.1-10.6,8.6-10.6c7.4,0,8,5.6,8,11v23.8h13.9C106.1,99.2,106.3,69.2,106.1,67.2z"/>
		</g>
	</g>
</g>
</svg>
