<?xml version="1.0" encoding="utf-8"?>
<!-- Generator: Adobe Illustrator 21.0.0, SVG Export Plug-In . SVG Version: 6.00 Build 0)  -->
<svg version="1.1" id="Calque_1" xmlns="http://www.w3.org/2000/svg" xmlns:xlink="http://www.w3.org/1999/xlink" x="0px" y="0px"
	 width="140px" height="140px" viewBox="0 0 140 140" style="enable-background:new 0 0 140 140;" xml:space="preserve">
<style type="text/css">
	.st0{fill:#AFAFAF;}
	.st1{fill:#FF6600;}
	.st2{fill:#FFFFFF;}
</style>
<g>
	<g>
		<path id="XMLID_1_" class="st0" d="M-31.1,17c0-38.6-31.3-69.9-69.9-69.9c-38.6,0-69.9,31.3-69.9,69.9c0,38.6,31.3,69.9,69.9,69.9
			C-62.4,86.9-31.1,55.6-31.1,17z"/>
	</g>
	<g>
		<path id="XMLID_108_" class="st1" d="M-31.1,17c0-38.6-31.3-69.9-69.9-69.9c-38.6,0-69.9,31.3-69.9,69.9
			c0,38.6,31.3,69.9,69.9,69.9C-62.4,86.9-31.1,55.6-31.1,17z"/>
		<g>
			<rect x="-134.3" y="-0.1" class="st2" width="16.2" height="46.3"/>
			<path class="st2" d="M-126.2-23.2c-5.1,0-9,4.7-7.9,9.9c0.7,3,3.2,5.5,6.2,6.1c5.2,1,9.8-2.9,9.8-7.9
				C-118.1-19.6-121.7-23.2-126.2-23.2z"/>
			<path class="st2" d="M-64.9,14.2C-66,5.4-70.4-0.1-82.1-0.1c-8.4,0-11.7,1.3-13.6,5l0,0v-5h-13.1v46.3h13.5V22
				c0-6,1.1-10.6,8.6-10.6c7.4,0,8,5.6,8,11v23.8h13.9C-64.9,46.2-64.7,16.2-64.9,14.2z"/>
		</g>
	</g>
</g>
<g>
	<g>
		<path id="XMLID_49_" class="st1" d="M139.9,70c0-38.6-31.3-69.9-69.9-69.9C31.4,0.1,0.1,31.4,0.1,70c0,38.6,31.3,69.9,69.9,69.9
			C108.6,139.9,139.9,108.6,139.9,70z"/>
		<path id="XMLID_47_" class="st2" d="M110.6,49c-2.8,1.1-5.8,1.9-8.9,2.3c3.3-1.9,5.9-5,7.2-8.6c0.1-0.2-0.2-0.4-0.4-0.3
			c-3.1,1.7-6.5,3-10.2,3.7c-3.1-3.2-7.5-5.3-12.4-5.3c-9.4,0-17,7.5-17,16.7c0,1.3,0.2,2.6,0.4,3.8C55.3,60.7,42.8,54.1,34.4,44
			c0-0.1-0.1,0-0.2,0c-1.4,2.4-2.2,5.3-2.2,8.3c0,5.7,2.9,10.7,7.3,13.7c0.1,0.1,0,0.2-0.1,0.2c-2.6-0.1-5-0.8-7.2-2
			c-0.1,0-0.1,0-0.1,0.1c0,0.7,0.3,4,1.1,6.1c2.1,5.2,6.8,9.2,12.5,10.3c-1.4,0.4-2.9,0.6-4.5,0.6c-1,0-2-0.1-3-0.3
			c-0.1,0-0.1,0.1-0.1,0.1c2.2,6.5,8.3,11.2,15.5,11.5c0.1,0,0.1,0.1,0.1,0.2c-5.8,4.4-13,7-20.9,7c-1.4,0-2.7-0.1-4-0.2
			c7.5,4.7,16.4,7.5,26,7.5c13.2,0,23.9-4.6,31.8-11.5c8-7,13.2-16.4,15.4-26c0.8-3.4,1.2-6.8,1.2-10.1c0-0.7,0-1.4-0.1-2.2
			c3.1-2.2,5.8-4.9,8-7.9C111,49.2,110.8,48.9,110.6,49z"/>
	</g>
</g>
</svg>
